# xmcd
#
# Track frame offsets:
#	150
#	13102
#	24905
#	38362
#	48937
#	59702
#	68595
#	82325
#	94900
#	104937
#	115820
#	127862
#
# Disc length: 1863
#
# Revision: 3
# Processed by: cddbd v1.5.1PL0 Copyright (c) Steve Scherf et al.
# Submitted via: dBpowerAMP V4.0
# Normalized: r2:TSWAP
#
DISCID=9d07450c
DTITLE=Various Artist - Classic Country - Country Memories
DYEAR=2003
DGENRE=Country
TTITLE0=The Browns - The Three Bells
TTITLE1=Don Gibson - I Can't Stop Lovin' You
TTITLE2=Stuart Hamblen - This Ole House
TTITLE3=Jim Reeves - He'll Have to Go
TTITLE4=Hank Locklin - Please Help Me, I'm Falling
TTITLE5=Floyd Cramer - San Antonio Rose
TTITLE6=Willie Nelson - Funny How Time Slips Away
TTITLE7=Bobby Bare - Detroit City
TTITLE8=George Hamilton IV - Abilene
TTITLE9=Porter Wagoner - Green, Green Grass of Home
TTITLE10=Eddy Arnold - Make the World Go Away
TTITLE11=Skeeter Davis - The End of the World
EXTD=
EXTT0=
EXTT1=
EXTT2=
EXTT3=
EXTT4=
EXTT5=
EXTT6=
EXTT7=
EXTT8=
EXTT9=
EXTT10=
EXTT11=
PLAYORDER=
